<!-- stars: 47 -->
<svg xmlns="http://www.w3.org/2000/svg" xmlns:xlink="http://www.w3.org/1999/xlink" width="1024" height="400">\n<path  d="M 0 0
L 1024 0
L 1024 400
L 0 400
L 0 0" style="stroke-width:0;stroke:rgba(255,255,255,1.0);fill:rgba(255,255,255,1.0)"/><path  d="M 38 11
L 972 11
L 972 351
L 38 351
L 38 11" style="stroke-width:0;stroke:rgba(255,255,255,1.0);fill:rgba(255,255,255,1.0)"/><path  d="M 38 351
L 972 351" style="stroke-width:2;stroke:rgba(85,85,85,1.0);fill:none"/><path  d="M 38 351
L 38 356" style="stroke-width:2;stroke:rgba(85,85,85,1.0);fill:none"/><text x="5" y="373" style="stroke-width:0;stroke:none;fill:rgba(51,51,51,1.0);font-size:12.8px;font-family:'Roboto Medium',sans-serif">2018-05-04</text><path  d="M 155 351
L 155 356" style="stroke-width:2;stroke:rgba(85,85,85,1.0);fill:none"/><text x="122" y="373" style="stroke-width:0;stroke:none;fill:rgba(51,51,51,1.0);font-size:12.8px;font-family:'Roboto Medium',sans-serif">2018-09-27</text><path  d="M 272 351
L 272 356" style="stroke-width:2;stroke:rgba(85,85,85,1.0);fill:none"/><text x="239" y="373" style="stroke-width:0;stroke:none;fill:rgba(51,51,51,1.0);font-size:12.8px;font-family:'Roboto Medium',sans-serif">2019-02-21</text><path  d="M 389 351
L 389 356" style="stroke-width:2;stroke:rgba(85,85,85,1.0);fill:none"/><text x="356" y="373" style="stroke-width:0;stroke:none;fill:rgba(51,51,51,1.0);font-size:12.8px;font-family:'Roboto Medium',sans-serif">2019-07-18</text><path  d="M 505 351
L 505 356" style="stroke-width:2;stroke:rgba(85,85,85,1.0);fill:none"/><text x="472" y="373" style="stroke-width:0;stroke:none;fill:rgba(51,51,51,1.0);font-size:12.8px;font-family:'Roboto Medium',sans-serif">2019-12-12</text><path  d="M 622 351
L 622 356" style="stroke-width:2;stroke:rgba(85,85,85,1.0);fill:none"/><text x="589" y="373" style="stroke-width:0;stroke:none;fill:rgba(51,51,51,1.0);font-size:12.8px;font-family:'Roboto Medium',sans-serif">2020-05-07</text><path  d="M 739 351
L 739 356" style="stroke-width:2;stroke:rgba(85,85,85,1.0);fill:none"/><text x="706" y="373" style="stroke-width:0;stroke:none;fill:rgba(51,51,51,1.0);font-size:12.8px;font-family:'Roboto Medium',sans-serif">2020-09-30</text><path  d="M 856 351
L 856 356" style="stroke-width:2;stroke:rgba(85,85,85,1.0);fill:none"/><text x="823" y="373" style="stroke-width:0;stroke:none;fill:rgba(51,51,51,1.0);font-size:12.8px;font-family:'Roboto Medium',sans-serif">2021-02-24</text><path  d="M 972 351
L 972 356" style="stroke-width:2;stroke:rgba(85,85,85,1.0);fill:none"/><text x="939" y="373" style="stroke-width:0;stroke:none;fill:rgba(51,51,51,1.0);font-size:12.8px;font-family:'Roboto Medium',sans-serif">2021-07-21</text><text x="490" y="395" style="stroke-width:0;stroke:none;fill:rgba(51,51,51,1.0);font-size:12.8px;font-family:'Roboto Medium',sans-serif">Time</text><path  d="M 974 351
L 974 11" style="stroke-width:2;stroke:rgba(85,85,85,1.0);fill:none"/><path  d="M 974 351
L 979 351" style="stroke-width:2;stroke:rgba(85,85,85,1.0);fill:none"/><text x="984" y="357" style="stroke-width:0;stroke:none;fill:rgba(51,51,51,1.0);font-size:12.8px;font-family:'Roboto Medium',sans-serif">0</text><path  d="M 974 308
L 979 308" style="stroke-width:2;stroke:rgba(85,85,85,1.0);fill:none"/><text x="984" y="314" style="stroke-width:0;stroke:none;fill:rgba(51,51,51,1.0);font-size:12.8px;font-family:'Roboto Medium',sans-serif">6</text><path  d="M 974 266
L 979 266" style="stroke-width:2;stroke:rgba(85,85,85,1.0);fill:none"/><text x="984" y="272" style="stroke-width:0;stroke:none;fill:rgba(51,51,51,1.0);font-size:12.8px;font-family:'Roboto Medium',sans-serif">12</text><path  d="M 974 223
L 979 223" style="stroke-width:2;stroke:rgba(85,85,85,1.0);fill:none"/><text x="984" y="229" style="stroke-width:0;stroke:none;fill:rgba(51,51,51,1.0);font-size:12.8px;font-family:'Roboto Medium',sans-serif">17</text><path  d="M 974 181
L 979 181" style="stroke-width:2;stroke:rgba(85,85,85,1.0);fill:none"/><text x="984" y="187" style="stroke-width:0;stroke:none;fill:rgba(51,51,51,1.0);font-size:12.8px;font-family:'Roboto Medium',sans-serif">23</text><path  d="M 974 138
L 979 138" style="stroke-width:2;stroke:rgba(85,85,85,1.0);fill:none"/><text x="984" y="144" style="stroke-width:0;stroke:none;fill:rgba(51,51,51,1.0);font-size:12.8px;font-family:'Roboto Medium',sans-serif">29</text><path  d="M 974 96
L 979 96" style="stroke-width:2;stroke:rgba(85,85,85,1.0);fill:none"/><text x="984" y="102" style="stroke-width:0;stroke:none;fill:rgba(51,51,51,1.0);font-size:12.8px;font-family:'Roboto Medium',sans-serif">34</text><path  d="M 974 53
L 979 53" style="stroke-width:2;stroke:rgba(85,85,85,1.0);fill:none"/><text x="984" y="59" style="stroke-width:0;stroke:none;fill:rgba(51,51,51,1.0);font-size:12.8px;font-family:'Roboto Medium',sans-serif">40</text><path  d="M 974 11
L 979 11" style="stroke-width:2;stroke:rgba(85,85,85,1.0);fill:none"/><text x="984" y="17" style="stroke-width:0;stroke:none;fill:rgba(51,51,51,1.0);font-size:12.8px;font-family:'Roboto Medium',sans-serif">46</text><text x="1009" y="150" style="stroke-width:0;stroke:none;fill:rgba(51,51,51,1.0);font-size:12.8px;font-family:'Roboto Medium',sans-serif" transform="rotate(90.00,1009,150)">Stargazers</text><path  d="M 38 351
L 43 343
L 123 336
L 140 328
L 166 321
L 226 314
L 226 306
L 249 299
L 267 291
L 283 284
L 284 277
L 284 269
L 289 262
L 289 254
L 293 247
L 294 240
L 295 232
L 297 225
L 299 217
L 300 210
L 300 203
L 300 195
L 303 188
L 304 181
L 307 173
L 308 166
L 310 158
L 320 151
L 322 144
L 322 136
L 356 129
L 361 121
L 409 114
L 421 107
L 482 99
L 501 92
L 515 84
L 532 77
L 550 70
L 584 62
L 714 55
L 722 47
L 782 40
L 890 33
L 912 25
L 957 18
L 972 11" style="stroke-width:2;stroke:rgba(129,199,239,1.0);fill:none"/></svg>